
        <svg xmlns="http://www.w3.org/2000/svg" xmlns:xlink="http://www.w3.org/1999/xlink" version="1.1" width="3172.08367028472" 
        height="876.9909957970738" viewBox="0 0 3172.08367028472 876.9909957970738">
			
			<g transform="scale(8.604183514235972) translate(10, 10)">
				<defs id="SvgjsDefs1039"></defs><g id="SvgjsG1040" featureKey="odWo6G-0" transform="matrix(0.9630704139434121,0,0,0.9630704139434121,-3.3195958240562526,-7.276353631989488)" fill="#2e8b35"><g xmlns="http://www.w3.org/2000/svg"><path d="M3.455,59.074C3.997,31.037,33.352,10.67,65.767,7.953c7.893-0.659,21.247-0.844,31.131,2.25l-9.352,17.253   c-6.528-1.661-14.235-2.134-21.918-1.797c-33.064,1.144-53.872,20.544-54.336,40.159c-0.244,10.416,4.785,20.447,14.77,26.248   l-0.652,0.557C10.918,85.411,3.16,74.064,3.455,59.074z"></path><path d="M18.844,65.656c3.279-16.372,21.514-28.878,50.168-27.383c3.968,0.209,8.473,0.598,12.494,1.479l-8.283,15.273   c-2.578-0.354-6.603-1.071-10.058-1.257C40.59,52.587,26.7,61.927,24.396,73.837c-1.237,6.395,1.385,13.541,7.928,18.034   l-0.656,0.504C20.464,86.175,16.835,75.665,18.844,65.656z"></path><path d="M32.375,73.946c5.484-9.222,22.011-12.208,36.767-8.624l-4.326,7.93c-11.73-2.699-25.31-0.866-29.202,5.896   c-2.116,3.68-0.936,8.737,1.454,12.306l-0.438,0.441C31.113,86.96,29.106,79.448,32.375,73.946z"></path></g></g><g id="SvgjsG1041" featureKey="nameLeftFeature-0" transform="matrix(2.535211301658675,0,0,2.535211301658675,106.70422542873202,8.042251869554276)" fill="#1f1e20"><path d="M9.22 8.36 l-5.28 0 l0 3.52 l4.02 0 c0.2 0 0.3 0.1 0.3 0.3 l0 1.76 c0 0.2 -0.1 0.3 -0.3 0.3 l-4.02 0 l0 3.4 l5.38 0 c0.2 0 0.3 0.1 0.3 0.3 l0 1.76 c0 0.2 -0.1 0.3 -0.3 0.3 l-7.72 0 c-0.2 0 -0.3 -0.1 -0.3 -0.3 l0 -13.4 c0 -0.2 0.1 -0.3 0.3 -0.3 l7.62 0 c0.2 0 0.3 0.1 0.3 0.3 l0 1.76 c0 0.2 -0.1 0.3 -0.3 0.3 z M16.52 11.56 c2.2 0.42 4.62 1.16 4.62 4.42 c0 2.52 -1.28 4.12 -4.02 4.12 l-2 0 c-2.58 0 -3.88 -1.5 -4 -3.74 c-0.02 -0.28 0.12 -0.42 0.4 -0.42 l1.8 0 c0.24 0 0.42 0.14 0.44 0.42 c0.08 1.06 0.48 1.38 1.36 1.38 l2 0 c0.96 0 1.38 -0.34 1.38 -1.76 c0 -1.58 -0.74 -1.8 -2.1 -2.06 l-1.04 -0.2 c-2.52 -0.48 -4.14 -1.56 -4.14 -4.1 c0 -2.28 1.3 -3.72 4.08 -3.72 l1.36 0 c2.56 0 3.82 1.5 3.96 3.68 c0.04 0.28 -0.12 0.42 -0.38 0.42 l-1.8 0 c-0.26 0 -0.42 -0.14 -0.46 -0.42 c-0.08 -0.98 -0.5 -1.32 -1.32 -1.32 l-1.36 0 c-1 0 -1.44 0.2 -1.44 1.36 c0 1.06 0.02 1.44 1.62 1.74 z M32.78 6 c0.2 0 0.3 0.1 0.3 0.3 l0 13.4 c0 0.2 -0.1 0.3 -0.3 0.3 l-2.62 0 c-0.16 0 -0.28 -0.06 -0.36 -0.22 l-3.92 -9.22 l0 9.14 c0 0.2 -0.1 0.3 -0.3 0.3 l-2.04 0 c-0.2 0 -0.3 -0.1 -0.3 -0.3 l0 -13.4 c0 -0.2 0.1 -0.3 0.3 -0.3 l2.64 0 c0.16 0 0.28 0.06 0.36 0.22 l3.9 9.2 l0 -9.12 c0 -0.2 0.1 -0.3 0.3 -0.3 l2.04 0 z M45.92 19.6 c0.06 0.22 -0.06 0.4 -0.26 0.4 l-1.96 0 c-0.2 0 -0.34 -0.18 -0.38 -0.4 l-0.52 -1.86 l-4.68 0 l-0.52 1.86 c-0.06 0.22 -0.18 0.4 -0.38 0.4 l-1.96 0 c-0.2 0 -0.32 -0.18 -0.26 -0.4 l3.82 -13.28 c0.06 -0.2 0.2 -0.32 0.38 -0.32 l2.48 0 c0.18 0 0.32 0.12 0.38 0.32 z M38.74 15.46 l3.44 0 l-1.72 -6.22 z"></path></g><g id="SvgjsG1042" featureKey="nameRightFeature-0" transform="matrix(2.535211301658675,0,0,2.535211301658675,224.9999975822341,8.042251869554276)" fill="#1f1e20"><path d="M16.1 15.74 c0.16 0 0.28 0.1 0.28 0.28 c-0.08 2.8 -1.54 4.08 -4.02 4.08 l-1.24 0 c-2.56 0 -4.02 -1.36 -4.02 -4.16 l0 -5.88 c0 -2.8 1.46 -4.16 4.02 -4.16 l1.24 0 c2.48 0 3.94 1.28 4.02 4.08 c0 0.18 -0.12 0.28 -0.28 0.28 l-0.44 0 c-0.18 0 -0.3 -0.1 -0.3 -0.28 c-0.08 -2.22 -0.94 -3.12 -3 -3.12 l-1.24 0 c-2.12 0 -3 0.98 -3 3.2 l0 5.88 c0 2.22 0.88 3.2 3 3.2 l1.24 0 c2.06 0 2.92 -0.9 3 -3.12 c0 -0.18 0.12 -0.28 0.3 -0.28 l0.44 0 z M27.520000000000003 19.68 c0.08 0.22 -0.04 0.32 -0.24 0.32 l-0.46 0 c-0.2 0 -0.26 -0.1 -0.34 -0.32 l-0.98 -3.16 l-5.76 0 l-0.98 3.16 c-0.06 0.22 -0.14 0.32 -0.34 0.32 l-0.46 0 c-0.2 0 -0.3 -0.1 -0.24 -0.32 l4.22 -13.36 c0.06 -0.2 0.2 -0.32 0.38 -0.32 l0.6 0 c0.18 0 0.32 0.12 0.38 0.32 z M20.020000000000003 15.620000000000001 l5.2 0 l-2.6 -8.38 z M38.620000000000005 19.66 c0.1 0.2 0 0.34 -0.2 0.34 l-0.5 0 c-0.16 0 -0.26 -0.06 -0.32 -0.2 l-2.22 -4.88 c-0.3 0.04 -0.62 0.06 -0.94 0.06 l-3.96 0 l0 4.72 c0 0.2 -0.1 0.3 -0.3 0.3 l-0.42 0 c-0.2 0 -0.3 -0.1 -0.3 -0.3 l0 -13.4 c0 -0.2 0.1 -0.3 0.3 -0.3 l0.42 0 l4.26 0 c2.44 0 3.9 1.26 3.9 4 l0 0.98 c0 1.94 -0.72 3.14 -2.02 3.68 z M30.480000000000004 14.02 l3.96 0 c2 0 2.88 -0.88 2.88 -3.04 l0 -0.98 c0 -2.16 -0.88 -3.04 -2.88 -3.04 l-3.96 0 l0 7.06 z M48.38000000000001 6.960000000000001 l-6.6 0 l0 5.76 l5.08 0 c0.2 0 0.3 0.1 0.3 0.3 l0 0.36 c0 0.2 -0.1 0.3 -0.3 0.3 l-5.08 0 l0 5.36 l6.7 0 c0.2 0 0.3 0.1 0.3 0.3 l0 0.36 c0 0.2 -0.1 0.3 -0.3 0.3 l-7.42 0 c-0.2 0 -0.3 -0.1 -0.3 -0.3 l0 -13.4 c0 -0.2 0.1 -0.3 0.3 -0.3 l7.32 0 c0.2 0 0.3 0.1 0.3 0.3 l0 0.36 c0 0.2 -0.1 0.3 -0.3 0.3 z"></path></g>
			</g>
		</svg>
	